<svg width="229" height="228" viewBox="0 0 229 228" fill="none" xmlns="http://www.w3.org/2000/svg">
<path d="M135.399 85.851C138.445 81.3023 143.835 80.9625 148.782 80.9604L155.212 81.0639C164.276 82.2104 170.574 87.6779 176.526 93.9965L181.795 99.465C186.023 103.784 190.409 107.994 194.164 112.742C199.765 119.821 200.317 124.985 200.315 133.454C200.314 139.459 200.875 145.128 195.544 149.253C192.883 151.313 189.69 151.668 186.433 151.623C186.229 151.62 186.071 151.522 186.039 151.732C181.776 180.101 148.735 176.123 146.133 152.066L121.312 151.929L118.055 151.931L117.355 151.766C117.623 151.546 118.086 151.454 118.413 151.342L120.733 150.541C120.894 150.326 122.141 149.916 122.467 149.76C129.637 146.316 134.431 138.697 135.307 130.903C135.582 128.462 135.418 125.865 135.419 123.403L135.414 112.714L135.399 85.851ZM160.938 93.9068C155.204 94.7555 155.951 99.1996 155.947 103.582C155.942 109.249 155.537 114.296 162.333 116.379C163.73 116.807 165.75 116.572 167.225 116.576L175.617 116.63C178.503 116.407 181.262 113.892 180.424 110.775L180.382 110.614C179.636 107.947 172.97 102.421 170.872 100.388C167.968 97.5741 165.47 93.6777 160.938 93.9068Z" fill="#00537A"/>
<path d="M43.5893 77.9233L47.2594 77.8841C48.5817 72.4612 52.261 67.5552 57.025 64.6537C63.4432 60.7452 70.5419 61.0672 77.7664 61.0633L106.799 61.0434C110.864 61.0359 115.189 60.6783 119.164 61.6615C128.853 64.0581 135.104 71.6865 135.148 81.6155C135.154 82.958 135.024 84.5536 135.4 85.851L135.418 112.714L135.419 123.403C135.418 125.865 135.582 128.462 135.307 130.903C134.431 138.697 129.637 146.316 122.467 149.76C122.141 149.916 120.894 150.326 120.733 150.541L118.412 151.342C118.085 151.454 117.622 151.546 117.355 151.766L118.054 151.921L104.449 151.676C104.458 153.029 104.456 154.471 104.186 155.906C101.47 170.345 82.8079 176.996 72.1058 166.101C69.427 163.374 66.4433 158.447 66.2704 154.447L66.0782 153.065L66.0071 152.62C65.8736 151.899 64.9324 152.266 64.3684 152.244C60.4005 152.09 56.1165 150.605 52.8507 148.416C44.9681 143.132 43.4017 134.423 43.4096 125.561L43.417 113.229C43.4224 111.761 43.401 110.192 43.685 108.75L43.8668 107.592C43.917 107.217 44.0006 107.049 44.2654 106.78L44.3415 106.705C43.5046 106.57 42.6114 106.668 41.7567 106.573L41.6165 106.556L38.0143 106.527C37.2877 106.52 36.4711 106.557 35.7663 106.384L35.6235 106.346C31.4605 105.267 32.0156 99.3522 36.4483 98.6345C38.7819 98.273 41.2276 98.7911 43.5184 98.4534C43.2783 95.0384 44.07 89.62 44.7963 86.367C45.1596 86.2762 45.4553 86.1051 45.4784 85.6998C45.0297 85.6927 44.5568 85.7097 44.118 85.6083L43.8992 85.5539L32.7965 85.4884C32.0616 85.4806 31.3322 85.513 30.6551 85.1799L30.5083 85.1059C27.5563 83.7074 27.4304 79.0036 30.6567 77.9681L30.7863 77.9297C31.7847 77.6255 33.3773 77.8895 34.4384 77.8945L43.5893 77.9233Z" fill="#A8E8F9"/>
<path d="M43.8992 85.5083L32.7965 85.4884C32.0616 85.4806 31.3322 85.5129 30.6551 85.1799L30.5083 85.1059C27.5563 83.7074 27.4304 79.0036 30.6567 77.9681L30.7863 77.9297C31.7847 77.6254 33.3773 77.8895 34.4384 77.8945L43.5893 77.9233L56.1888 77.9439C57.0143 77.9475 57.8822 77.9283 58.6857 78.1357L58.8287 78.1706C61.9338 78.9855 61.3975 84.8966 57.1922 85.4147C54.1555 85.7887 47.0626 85.6806 43.8992 85.5083Z" fill="#00537A"/>
<path d="M36.449 98.6345L94.9328 98.4658C96.9803 98.4662 100.194 97.9474 102.041 99.0597L102.196 99.1508C105.145 100.943 104.939 105.315 101.566 106.335L101.389 106.39C100.603 106.618 99.722 106.545 98.9086 106.54L84.3637 106.518L41.6172 106.537L38.0151 106.527C37.2884 106.52 36.4718 106.557 35.767 106.384L35.6242 106.345C31.4612 105.267 32.0163 99.3522 36.449 98.6345Z" fill="url(#paint0_linear_1_220)"/>
<path d="M80.4778 133.551C91.4917 130.549 103.201 138.515 104.278 149.723C104.335 150.316 104.316 151.001 104.45 151.576C104.459 153.029 104.457 154.471 104.187 155.906C101.471 170.345 82.8089 176.996 72.1067 166.101C69.428 163.374 66.4443 158.447 66.2714 154.447L66.0792 153.065C66.0514 144.479 71.9555 135.729 80.4778 133.551Z" fill="url(#paint1_linear_1_220)"/>
<defs>
<linearGradient id="paint0_linear_1_220" x1="86.2725" y1="121.336" x2="50.698" y2="83.8539" gradientUnits="userSpaceOnUse">
<stop stop-color="#00305B"/>
<stop offset="1" stop-color="#178BB3"/>
</linearGradient>
<linearGradient id="paint1_linear_1_220" x1="102.669" y1="160.117" x2="67.9764" y2="144.241" gradientUnits="userSpaceOnUse">
<stop stop-color="#00375B"/>
<stop offset="1" stop-color="#1C84B3"/>
</linearGradient>
</defs>
</svg>
