<svg width="660" height="320" viewBox="0 0 660 320" fill="none" xmlns="http://www.w3.org/2000/svg">
<rect width="660" height="320" fill="#B08972"/>
<path d="M508.664 43.1771C503.726 42.2429 503.511 33.0799 509.669 31.3139C511.292 30.8489 513.22 31.0382 514.896 31.0377L523.442 31.0554L538.698 31.1862C541.51 31.8276 544.256 31.6737 546.153 34.4302C547.971 37.0699 546.641 41.143 544.257 42.7743C542.614 43.8989 540.975 43.7836 539.133 43.7987L533.629 43.8351L518.359 43.8029C515.356 43.8024 511.477 44.5355 508.664 43.1771Z" fill="#683A2F"/>
<path d="M538.965 31.9964L539.005 31.8535C539.599 29.1981 540.618 27.9926 542.752 26.3104C551.579 19.3553 566.449 18.0463 571.8 29.6529C576.456 37.6998 573.437 49.473 565.429 54.1823L562.264 55.8883C561.955 56.0452 561.409 56.2323 561.237 56.553L561.177 56.8022L554.009 56.7731C552.563 56.7838 550.834 56.5991 549.419 56.8149L549.236 57C545.477 56.8625 540.421 52.2353 538.009 49.7218C536.219 47.6135 534.854 45.9556 534 43.2715L539.391 43.2011C541.196 43.1875 542.801 43.2919 544.411 42.273C546.746 40.7949 548.048 37.1046 546.268 34.713C544.409 32.2155 541.719 32.3549 538.965 31.9964Z" fill="#683A2F"/>
<path d="M425.731 80.2876C427.408 79.9559 429.124 80.005 430.813 80L494.038 80.0065C503.291 80.0665 509.765 82.4343 511.769 92.4225C513.175 99.4247 507.965 106.27 501.482 108.226L499.143 108.776L434.919 108.997C430.741 108.992 426.537 109.088 422.392 108.481C417.81 107.108 413.881 102.58 413.261 97.8335C411.692 90.0662 417.373 80.5886 425.731 80.2876Z" fill="#683A2F"/>
<path d="M557.064 182.455C557.048 179.326 556.874 176.051 557.177 172.915C558.79 156.22 575.035 139.592 592.096 139.107C593.298 139.48 595.014 139.23 596.271 139.2C601.191 139.084 606.118 138.518 610.855 140.029C612.211 140.462 615.913 142.791 615.954 144.421C617.823 147.755 617.152 152.584 615.332 155.855C626.769 168.08 627.281 186.197 614.517 197.816C598.845 212.083 572.955 204.109 568.148 182.641L557.064 182.455Z" fill="#683A2F"/>
<path d="M557.064 182.813C557.048 179.659 556.874 176.356 557.177 173.195C558.788 156.362 575.015 139.597 592.057 139.108C593.257 139.484 594.971 139.232 596.226 139.202C601.142 139.084 606.063 138.514 610.794 140.038C612.149 140.474 615.847 142.822 615.887 144.466C617.754 147.827 617.084 152.696 615.266 155.994C613.506 154.389 611.65 153.293 609.575 152.167C601.045 148.385 591.444 147.748 583.171 152.773C571.976 159.575 566.296 169.976 568.127 183L557.064 182.813Z" fill="#683A2F"/>
<path d="M548.797 57.2364C550.242 56.8602 552.009 57.0485 553.486 57.0376L560.809 57.0644L591 139.944C574.126 140.429 558.059 157.052 556.464 173.741C556.164 176.876 556.336 180.15 556.345 183.302L466.291 182.948C465.808 183.655 465.719 184.483 465.382 185.258C458.998 199.902 443.261 210.577 427.39 204.031L427.372 204.008C418.515 201.083 412.08 192.169 411.117 182.975C410.903 180.934 411.047 178.745 411.051 176.688C412.058 175.703 421.193 176.263 422.94 176.262L442.603 176.252L475.386 175.997C482.631 175.938 489.93 171.531 491.648 164.013C491.992 162.51 491.903 160.763 492.426 159.338C494.509 160.78 500.519 159.776 503.42 160.273C504.013 160.375 504.591 160.586 505.196 160.582L505.499 160.574C507.98 161.136 510.634 161.034 513.153 161.04L521.079 160.971C537.501 160.113 550.987 148.076 553.486 131.734C554.298 126.43 553.328 121.006 553.078 115.702L548.797 57.2364Z" fill="#683A2F"/>
<path d="M422.511 109C426.678 109.609 430.906 109.516 435.106 109.52L499.679 109.469C499.282 110.113 499.216 111.097 499.008 111.968L495.361 124.581C493.825 129.349 490.314 139.055 491.988 143.731C492.495 145.148 493.56 146.373 494.5 147.536L502.603 157.04C503.597 158.161 504.633 159.389 506 160.081L505.695 160.048C505.087 160.052 504.506 159.845 503.91 159.746C500.994 159.261 494.952 160.24 492.859 158.835C492.333 160.224 492.422 161.927 492.077 163.392C490.35 170.72 483.013 175.017 475.73 175.074L442.777 175.323L423.011 175.332C421.255 175.334 412.073 174.787 411.073 175.748C400.772 177.675 394.404 168.23 396.349 158.816C397.705 152.25 400.693 145.904 402.982 139.599C407.707 126.584 407.388 122.301 418.108 112.638C419.524 111.362 420.904 110.046 422.511 109Z" fill="#683A2F"/>
<rect x="351" y="123" width="67" height="11" rx="5.5" fill="#FFAA00"/>
<rect x="336" y="140" width="82" height="12" rx="6" fill="#FFAA00"/>
<path fill-rule="evenodd" clip-rule="evenodd" d="M659.645 320H0.355128C0.119242 318.177 0 316.344 0 314.5C0 249.607 147.746 197 330 197C512.254 197 660 249.607 660 314.5C660 316.344 659.881 318.177 659.645 320Z" fill="#E8A972"/>
<ellipse cx="97.431" cy="289.431" rx="3" ry="4.68057" transform="rotate(-45 97.431 289.431)" fill="#D9D9D9"/>
<ellipse cx="172.431" cy="245.431" rx="3" ry="4.68057" transform="rotate(-45 172.431 245.431)" fill="#D9D9D9"/>
<ellipse cx="129.431" cy="278.431" rx="3" ry="4.68057" transform="rotate(-45 129.431 278.431)" fill="#D9D9D9"/>
<ellipse cx="379.431" cy="265.431" rx="3" ry="4.68057" transform="rotate(-45 379.431 265.431)" fill="#D9D9D9"/>
<ellipse cx="301.431" cy="245.431" rx="3" ry="4.68057" transform="rotate(-45 301.431 245.431)" fill="#D9D9D9"/>
<ellipse cx="468.431" cy="227.431" rx="3" ry="4.68057" transform="rotate(-45 468.431 227.431)" fill="#D9D9D9"/>
<ellipse cx="423.431" cy="289.431" rx="3" ry="4.68057" transform="rotate(-45 423.431 289.431)" fill="#D9D9D9"/>
<ellipse cx="247.431" cy="289.431" rx="3" ry="4.68057" transform="rotate(-45 247.431 289.431)" fill="#D9D9D9"/>
<ellipse cx="245.431" cy="216.431" rx="3" ry="4.68057" transform="rotate(-45 245.431 216.431)" fill="#D9D9D9"/>
<ellipse cx="528.431" cy="272.431" rx="3" ry="4.68057" transform="rotate(-45 528.431 272.431)" fill="#D9D9D9"/>
<ellipse cx="183.431" cy="273.431" rx="3" ry="4.68057" transform="rotate(-135 183.431 273.431)" fill="#D9D9D9"/>
<ellipse cx="130.431" cy="300.431" rx="3" ry="4.68057" transform="rotate(-135 130.431 300.431)" fill="#D9D9D9"/>
<ellipse cx="216.431" cy="234.431" rx="3" ry="4.68057" transform="rotate(-135 216.431 234.431)" fill="#D9D9D9"/>
<ellipse cx="377.431" cy="228.431" rx="3" ry="4.68057" transform="rotate(-135 377.431 228.431)" fill="#D9D9D9"/>
<ellipse cx="449.431" cy="261.431" rx="3" ry="4.68057" transform="rotate(-135 449.431 261.431)" fill="#D9D9D9"/>
<ellipse cx="330.431" cy="296.431" rx="3" ry="4.68057" transform="rotate(-135 330.431 296.431)" fill="#D9D9D9"/>
<ellipse cx="562.431" cy="296.431" rx="3" ry="4.68057" transform="rotate(-135 562.431 296.431)" fill="#D9D9D9"/>
<ellipse cx="495.431" cy="296.431" rx="3" ry="4.68057" transform="rotate(-135 495.431 296.431)" fill="#D9D9D9"/>
</svg>
