<svg width="93" height="84" viewBox="0 0 93 84" fill="none" xmlns="http://www.w3.org/2000/svg">
<g clip-path="url(#clip0_17_27)">
<path d="M46.2 7.56328C58.5441 7.56328 60.0059 7.6125 64.8605 7.80937C69.3722 7.98984 71.8085 8.67891 73.4327 9.25313C75.5803 10.0078 77.1323 10.9266 78.7385 12.3867C80.3627 13.8633 81.3553 15.2578 82.1855 17.2102C82.8171 18.6867 83.5751 20.918 83.7736 25.0031C83.9902 29.4328 84.0443 30.7617 84.0443 41.9672C84.0443 53.1891 83.9902 54.518 83.7736 58.9313C83.5751 63.0328 82.8171 65.2477 82.1855 66.7242C81.3553 68.6766 80.3447 70.0875 78.7385 71.5477C77.1143 73.0242 75.5803 73.9266 73.4327 74.6813C71.8085 75.2555 69.3541 75.9445 64.8605 76.125C59.9878 76.3219 58.526 76.3711 46.2 76.3711C33.8559 76.3711 32.3941 76.3219 27.5395 76.125C23.0278 75.9445 20.5915 75.2555 18.9673 74.6813C16.8197 73.9266 15.2677 73.0078 13.6615 71.5477C12.0373 70.0711 11.0447 68.6766 10.2145 66.7242C9.58289 65.2477 8.82492 63.0164 8.62641 58.9313C8.40984 54.5016 8.3557 53.1727 8.3557 41.9672C8.3557 30.7453 8.40984 29.4164 8.62641 25.0031C8.82492 20.9016 9.58289 18.6867 10.2145 17.2102C11.0447 15.2578 12.0553 13.8469 13.6615 12.3867C15.2857 10.9102 16.8197 10.0078 18.9673 9.25313C20.5915 8.67891 23.0459 7.98984 27.5395 7.80937C32.3941 7.6125 33.8559 7.56328 46.2 7.56328ZM46.2 0C33.6574 0 32.0873 0.0492187 27.1605 0.246094C22.2518 0.442969 18.877 1.16484 15.9534 2.19844C12.9035 3.28125 10.3228 4.70859 7.76016 7.05469C5.17945 9.38438 3.60938 11.7305 2.41828 14.4867C1.28133 17.1609 0.487266 20.2125 0.270703 24.675C0.0541406 29.1703 0 30.5977 0 42C0 53.4023 0.0541406 54.8297 0.270703 59.3086C0.487266 63.7711 1.28133 66.8391 2.41828 69.4969C3.60938 72.2695 5.17945 74.6156 7.76016 76.9453C10.3228 79.275 12.9035 80.7188 15.9354 81.7852C18.877 82.8188 22.2337 83.5406 27.1425 83.7375C32.0693 83.9344 33.6394 83.9836 46.182 83.9836C58.7245 83.9836 60.2946 83.9344 65.2214 83.7375C70.1302 83.5406 73.5049 82.8188 76.4285 81.7852C79.4604 80.7188 82.0411 79.275 84.6037 76.9453C87.1664 74.6156 88.7545 72.2695 89.9276 69.5133C91.0645 66.8391 91.8586 63.7875 92.0752 59.325C92.2917 54.8461 92.3459 53.4188 92.3459 42.0164C92.3459 30.6141 92.2917 29.1867 92.0752 24.7078C91.8586 20.2453 91.0645 17.1773 89.9276 14.5195C88.7906 11.7305 87.2206 9.38438 84.6398 7.05469C82.0772 4.725 79.4965 3.28125 76.4646 2.21484C73.523 1.18125 70.1663 0.459375 65.2575 0.2625C60.3127 0.0492188 58.7426 0 46.2 0Z" fill="#66392E"/>
<path d="M46.2 20.4258C33.098 20.4258 22.4684 30.0891 22.4684 42C22.4684 53.9109 33.098 63.5742 46.2 63.5742C59.302 63.5742 69.9316 53.9109 69.9316 42C69.9316 30.0891 59.302 20.4258 46.2 20.4258ZM46.2 55.9945C37.6999 55.9945 30.806 49.7273 30.806 42C30.806 34.2727 37.6999 28.0055 46.2 28.0055C54.7001 28.0055 61.594 34.2727 61.594 42C61.594 49.7273 54.7001 55.9945 46.2 55.9945Z" fill="#66392E"/>
<path d="M76.4105 19.5727C76.4105 22.3618 73.92 24.6095 70.8701 24.6095C67.8021 24.6095 65.3297 22.3454 65.3297 19.5727C65.3297 16.7837 67.8202 14.536 70.8701 14.536C73.92 14.536 76.4105 16.8001 76.4105 19.5727Z" fill="#66392E"/>
</g>
<defs>
<clipPath id="clip0_17_27">
<rect width="92.4" height="84" fill="white"/>
</clipPath>
</defs>
</svg>
