<svg width="213" height="229" viewBox="0 0 213 229" fill="none" xmlns="http://www.w3.org/2000/svg">
<g clip-path="url(#clip0_1702_2)">
<rect width="213" height="229" fill="white"/>
<rect width="97.5406" height="192.495" rx="48.7703" transform="matrix(1 0 -0.00198389 0.999998 76.2632 40.7906)" fill="#66392E"/>
<path d="M208.091 125.3C208.091 65.8314 170.855 17.175 125.345 17.175C79.8355 17.175 42.6001 65.8314 42.6001 125.3C42.6001 179.363 72.5952 225.316 111.899 233.425L111.899 156.386H91.2129L91.2129 125.3H111.899L111.899 100.972C111.899 73.9407 124.311 59.0735 142.929 59.0735C152.238 59.0735 161.546 61.7767 161.546 61.7767L161.546 88.8079H151.203C140.86 88.8079 137.757 96.9173 137.757 105.027L137.757 125.3H160.512L156.375 156.386H136.723L136.723 233.425C178.095 225.316 208.091 179.363 208.091 125.3Z" fill="white"/>
</g>
<defs>
<clipPath id="clip0_1702_2">
<rect width="213" height="229" fill="white"/>
</clipPath>
</defs>
</svg>
