<svg width="229" height="229" viewBox="0 0 229 229" fill="none" xmlns="http://www.w3.org/2000/svg">
<path d="M132.125 70.6074L176.459 70.6049C185.016 70.6241 192.577 76.0033 193.488 84.9416C193.753 87.5435 193.573 90.3251 193.574 92.9444L193.527 142.71C193.291 147.823 190.732 152.808 186.197 155.378C181.166 158.228 174.988 157.486 169.439 157.485L54.6459 157.491C52.0426 157.492 49.0852 157.783 46.5712 157.099C40.2277 155.373 36.0936 149.814 35.4202 143.407C35.1951 141.267 35.3621 138.948 35.3656 136.791L35.3636 90.9827C35.3632 87.9097 35.1439 84.8637 35.9885 81.8768C37.7788 75.5457 43.6765 71.4169 50.0179 70.6882C51.6412 70.5017 53.3489 70.5996 54.9854 70.5999L92.4651 70.6078L132.125 70.6074Z" fill="url(#paint0_linear_1_226)"/>
<path d="M51.519 74.538L172.757 74.5376C180.398 74.5437 187.277 74.9027 189.276 83.9343C189.602 85.4032 189.5 86.935 189.502 88.4321L189.535 115.723C189.541 116.989 189.805 118.219 189.82 119.466L189.823 134.994C189.854 143.235 190.301 151.587 180.398 153.754L177.098 154.172L57.8387 154.158C48.7032 154.16 39.6023 153.541 39.1714 142.177L39.1636 87.2407C39.2379 79.5539 43.7236 74.9422 51.519 74.538Z" fill="#A8E8F9"/>
<path d="M164.51 96.8878L164.755 96.8747C173.082 96.5886 180.156 104.739 180.341 112.717C180.552 121.784 173.839 129.451 164.606 129.662C160.655 129.626 156.934 128.337 153.932 125.721C142.81 116.028 149.7 97.797 164.51 96.8878Z" fill="#00537A"/>
<path d="M63.7232 96.8864C76.9105 96.3405 85.7122 112.624 77.3326 123.267C74.2951 127.125 70.4332 129.078 65.6123 129.627C43.8984 130.044 43.1166 98.4318 63.7232 96.8864Z" fill="#00537A"/>
<path d="M113.482 86.5475C128.038 86.0782 140.61 96.8633 141.494 111.596C142.399 126.676 130.849 138.977 115.875 139.869C101.513 140.493 88.2645 129.685 87.455 115.099C86.602 99.732 98.297 87.3823 113.482 86.5475Z" fill="#00537A"/>
<path d="M113.619 93.19C116.501 93.0711 117.204 95.0524 117.135 97.4419C126.124 101.048 124.626 110.12 119.805 108.887C118.04 108.436 118.582 103.77 115.747 103.21C111.819 102.435 108.478 105.554 111.053 108.749C112.363 110.376 115.322 109.863 117.178 110.126L117.348 110.152C125.231 111.243 127.026 123.608 118.103 127.135L117.954 127.193C117.997 128.951 117.927 130.258 116.235 131.133C111.945 132.278 112.228 130.01 111.507 127.549L111.177 127.506C110.158 127.381 109.254 126.46 108.561 125.748C106.084 123.202 103.909 116.642 109.008 117.083C110.899 117.247 110.646 119.668 111.734 120.935C115.02 124.762 121.236 119.431 117.544 116.351L117.413 116.244C116.506 115.467 112.805 115.85 111.402 115.625C102.602 114.215 103.017 100.101 110.474 98.0101C113.345 97.2052 109.706 94.0618 113.619 93.19Z" fill="#A8E8F9"/>
<defs>
<linearGradient id="paint0_linear_1_226" x1="112.912" y1="68.5707" x2="115.869" y2="159.374" gradientUnits="userSpaceOnUse">
<stop stop-color="#4DD2F2"/>
<stop offset="1" stop-color="#A2EAF4"/>
</linearGradient>
</defs>
</svg>
