<svg width="72" height="72" viewBox="0 0 72 72" fill="none" xmlns="http://www.w3.org/2000/svg">
<g clip-path="url(#clip0_1702_2)">
<rect width="72" height="72" fill="#040404"/>
<rect width="32.9715" height="60.5226" rx="16.4857" transform="matrix(1 0 -0.00213292 0.999998 25.7791 12.825)" fill="white"/>
<path d="M70.3404 39.3957C70.3404 20.6981 57.7538 5.40002 42.3701 5.40002C26.9865 5.40002 14.3999 20.6981 14.3999 39.3957C14.3999 56.3935 24.5391 70.8417 37.825 73.3914L37.825 49.1694H30.8324L30.8324 39.3957H37.825L37.825 31.7467C37.825 23.2477 42.0205 18.5733 48.3138 18.5733C51.4605 18.5733 54.6071 19.4232 54.6071 19.4232L54.6071 27.9222H51.1108C47.6145 27.9222 46.5657 30.4718 46.5657 33.0215L46.5657 39.3957H54.2575L52.859 49.1694H46.216L46.216 73.3914C60.2011 70.8417 70.3404 56.3935 70.3404 39.3957Z" fill="black"/>
</g>
<defs>
<clipPath id="clip0_1702_2">
<rect width="72" height="72" fill="white"/>
</clipPath>
</defs>
</svg>
