<svg width="131" height="86" viewBox="0 0 131 86" fill="none" xmlns="http://www.w3.org/2000/svg">
<g clip-path="url(#clip0_3507_16)">
<rect width="131" height="86" rx="14" fill="white"/>
<path d="M129.695 18.5565C129.695 18.5565 128.416 10.1261 124.476 6.42433C119.486 1.55235 113.909 1.52846 111.35 1.24188C93.0305 -7.07034e-07 65.5256 0 65.5256 0H65.4744C65.4744 0 37.9695 -7.07034e-07 19.65 1.24188C17.0914 1.52846 11.5137 1.55235 6.52441 6.42433C2.58418 10.1261 1.33047 18.5565 1.33047 18.5565C1.33047 18.5565 0 28.4676 0 38.3549V47.6212C0 57.5085 1.30488 67.4196 1.30488 67.4196C1.30488 67.4196 2.58418 75.85 6.49883 79.5518C11.4881 84.4238 18.0381 84.2566 20.9549 84.782C31.4451 85.7134 65.5 86 65.5 86C65.5 86 93.0305 85.9522 111.35 84.7342C113.909 84.4477 119.486 84.4238 124.476 79.5518C128.416 75.85 129.695 67.4196 129.695 67.4196C129.695 67.4196 131 57.5323 131 47.6212V38.3549C131 28.4676 129.695 18.5565 129.695 18.5565ZM51.965 58.8698V24.5032L87.3504 41.7462L51.965 58.8698Z" fill="#683A2F"/>
</g>
<defs>
<clipPath id="clip0_3507_16">
<rect width="131" height="86" rx="14" fill="white"/>
</clipPath>
</defs>
</svg>
